# xmcd CD database file
#
# Track frame offsets:
#	150
#	22786
#	49133
#	64511
#	102415
#	115655
#	130767
#	151179
#	189637
#	226372
#	247875
#	288872
#
# Disc length: 4179 seconds
#
# Revision: 0
# Processed by: cddbd v1.5.2PL0 Copyright (c) Steve Scherf et al.
# Submitted via: CDex 1.51
#
DISCID=9110510c
DTITLE=Various Artist - Greatest Works: Trumpet, CD1
DYEAR=2008
DGENRE=Jazz
TTITLE0=Louis Armstrong and the All Stars - Royal garden blues
TTITLE1=Louis Armstrong and the All Stars - Basin street blues
TTITLE2=Jimmy McPartland w - Jack Teagarden and his orchestra - Original Dixieland one-step
TTITLE3=Henry Red Allan큦  All Stars - I cover the waterfront
TTITLE4=Wilbur de Paris and his New New Orleans Jazz - Anything goes
TTITLE5=Jimmy McPartland w - Bud Freeman큦 Summa Cum Laude Orchestra - Nobody큦 sweetheart
TTITLE6=Bobby Hackett and his Jazz Band - That큦 a plenty
TTITLE7=Rex Stewart and Cootie Williams - Alphonse and Gaston
TTITLE8=Harry Edison - Studio call
TTITLE9=Wild Bill Davison w - Eddie Condon and his All Stars - At the Jazz Band ball
TTITLE10=Roy Eldridge and Dizzy Gillespie - Blue moon
TTITLE11=Dizzie Gillespie-Sonny Rollins-Sonny Stitt - I know that you know
EXTD=YEAR: 2008
EXTT0=
EXTT1=
EXTT2=
EXTT3=
EXTT4=
EXTT5=
EXTT6=
EXTT7=
EXTT8=
EXTT9=
EXTT10=
EXTT11=
PLAYORDER=
